<mxfile host="app.diagrams.net" agent="Mozilla/5.0 (Windows NT 10.0; Win64; x64) AppleWebKit/537.36 (KHTML, like Gecko) Chrome/136.0.0.0 Safari/537.36 Edg/136.0.0.0" version="27.0.2">
  <diagram name="Page-1" id="3Poxv8Zdp6IBXcQzrYLB">
    <mxGraphModel dx="1378" dy="832" grid="1" gridSize="10" guides="1" tooltips="1" connect="1" arrows="1" fold="1" page="1" pageScale="1" pageWidth="827" pageHeight="1169" math="0" shadow="0">
      <root>
        <mxCell id="0" />
        <mxCell id="1" parent="0" />
        <mxCell id="tqMW89JL3QEZzd8QF9iF-1" value="&#xa;&lt;span&gt;Diagramme &lt;/span&gt;&lt;span&gt;de &lt;/span&gt;&lt;span&gt;cas &lt;/span&gt;&lt;span&gt;d’usage &lt;/span&gt;&lt;span&gt;– &lt;/span&gt;&lt;span&gt;Chat&lt;/span&gt;&#xa;&#xa;" style="rounded=1;whiteSpace=wrap;html=1;" vertex="1" parent="1">
          <mxGeometry x="400" y="60" width="320" height="40" as="geometry" />
        </mxCell>
        <mxCell id="tqMW89JL3QEZzd8QF9iF-14" value="" style="edgeStyle=orthogonalEdgeStyle;rounded=0;orthogonalLoop=1;jettySize=auto;html=1;" edge="1" parent="1" source="tqMW89JL3QEZzd8QF9iF-2" target="tqMW89JL3QEZzd8QF9iF-11">
          <mxGeometry relative="1" as="geometry" />
        </mxCell>
        <mxCell id="tqMW89JL3QEZzd8QF9iF-2" value="Utilisateur&amp;nbsp;&lt;div&gt;Eleve&lt;/div&gt;" style="ellipse;whiteSpace=wrap;html=1;fillColor=#e1d5e7;strokeColor=#9673a6;" vertex="1" parent="1">
          <mxGeometry x="80" y="140" width="120" height="80" as="geometry" />
        </mxCell>
        <mxCell id="tqMW89JL3QEZzd8QF9iF-18" value="" style="edgeStyle=orthogonalEdgeStyle;rounded=0;orthogonalLoop=1;jettySize=auto;html=1;" edge="1" parent="1" source="tqMW89JL3QEZzd8QF9iF-3" target="tqMW89JL3QEZzd8QF9iF-12">
          <mxGeometry relative="1" as="geometry" />
        </mxCell>
        <mxCell id="tqMW89JL3QEZzd8QF9iF-3" value="Utilisateur&amp;nbsp;&lt;div&gt;Mentor/Bénévole&lt;/div&gt;" style="ellipse;whiteSpace=wrap;html=1;fillColor=#d5e8d4;strokeColor=#82b366;" vertex="1" parent="1">
          <mxGeometry x="600" y="140" width="120" height="80" as="geometry" />
        </mxCell>
        <mxCell id="tqMW89JL3QEZzd8QF9iF-16" value="" style="edgeStyle=orthogonalEdgeStyle;rounded=0;orthogonalLoop=1;jettySize=auto;html=1;" edge="1" parent="1" source="tqMW89JL3QEZzd8QF9iF-4" target="tqMW89JL3QEZzd8QF9iF-6">
          <mxGeometry relative="1" as="geometry" />
        </mxCell>
        <mxCell id="tqMW89JL3QEZzd8QF9iF-4" value="Réception/Envoi&lt;div&gt;de message(s)&lt;/div&gt;" style="shape=hexagon;perimeter=hexagonPerimeter2;whiteSpace=wrap;html=1;fixedSize=1;fillColor=#fff2cc;strokeColor=#d6b656;" vertex="1" parent="1">
          <mxGeometry x="80" y="400" width="120" height="80" as="geometry" />
        </mxCell>
        <mxCell id="tqMW89JL3QEZzd8QF9iF-17" value="" style="edgeStyle=orthogonalEdgeStyle;rounded=0;orthogonalLoop=1;jettySize=auto;html=1;" edge="1" parent="1" source="tqMW89JL3QEZzd8QF9iF-6" target="tqMW89JL3QEZzd8QF9iF-9">
          <mxGeometry relative="1" as="geometry" />
        </mxCell>
        <mxCell id="tqMW89JL3QEZzd8QF9iF-6" value="Consultation&lt;div&gt;nouveau/ancien&amp;nbsp;&lt;/div&gt;&lt;div&gt;message(s)&lt;/div&gt;" style="shape=hexagon;perimeter=hexagonPerimeter2;whiteSpace=wrap;html=1;fixedSize=1;fillColor=#fff2cc;strokeColor=#d6b656;" vertex="1" parent="1">
          <mxGeometry x="80" y="520" width="120" height="80" as="geometry" />
        </mxCell>
        <mxCell id="tqMW89JL3QEZzd8QF9iF-20" value="" style="edgeStyle=orthogonalEdgeStyle;rounded=0;orthogonalLoop=1;jettySize=auto;html=1;" edge="1" parent="1" source="tqMW89JL3QEZzd8QF9iF-7" target="tqMW89JL3QEZzd8QF9iF-8">
          <mxGeometry relative="1" as="geometry" />
        </mxCell>
        <mxCell id="tqMW89JL3QEZzd8QF9iF-7" value="Réception/Envoi&lt;div&gt;de message(s)&lt;/div&gt;" style="shape=hexagon;perimeter=hexagonPerimeter2;whiteSpace=wrap;html=1;fixedSize=1;fillColor=#ffe6cc;strokeColor=#d79b00;" vertex="1" parent="1">
          <mxGeometry x="600" y="400" width="120" height="80" as="geometry" />
        </mxCell>
        <mxCell id="tqMW89JL3QEZzd8QF9iF-21" value="" style="edgeStyle=orthogonalEdgeStyle;rounded=0;orthogonalLoop=1;jettySize=auto;html=1;" edge="1" parent="1" source="tqMW89JL3QEZzd8QF9iF-8" target="tqMW89JL3QEZzd8QF9iF-10">
          <mxGeometry relative="1" as="geometry" />
        </mxCell>
        <mxCell id="tqMW89JL3QEZzd8QF9iF-8" value="Consultation&lt;div&gt;nouveau/ancien&lt;/div&gt;&lt;div&gt;message(s)&lt;/div&gt;" style="shape=hexagon;perimeter=hexagonPerimeter2;whiteSpace=wrap;html=1;fixedSize=1;fillColor=#ffe6cc;strokeColor=#d79b00;" vertex="1" parent="1">
          <mxGeometry x="600" y="520" width="120" height="80" as="geometry" />
        </mxCell>
        <mxCell id="tqMW89JL3QEZzd8QF9iF-9" value="Suppression&lt;div&gt;de(s) message(s)&lt;/div&gt;" style="shape=hexagon;perimeter=hexagonPerimeter2;whiteSpace=wrap;html=1;fixedSize=1;fillColor=#fff2cc;strokeColor=#d6b656;" vertex="1" parent="1">
          <mxGeometry x="80" y="640" width="120" height="80" as="geometry" />
        </mxCell>
        <mxCell id="tqMW89JL3QEZzd8QF9iF-10" value="Suppression&lt;div&gt;de(s) message(s)&lt;/div&gt;" style="shape=hexagon;perimeter=hexagonPerimeter2;whiteSpace=wrap;html=1;fixedSize=1;fillColor=#ffe6cc;strokeColor=#d79b00;" vertex="1" parent="1">
          <mxGeometry x="600" y="640" width="120" height="80" as="geometry" />
        </mxCell>
        <mxCell id="tqMW89JL3QEZzd8QF9iF-15" value="" style="edgeStyle=orthogonalEdgeStyle;rounded=0;orthogonalLoop=1;jettySize=auto;html=1;" edge="1" parent="1" source="tqMW89JL3QEZzd8QF9iF-11" target="tqMW89JL3QEZzd8QF9iF-4">
          <mxGeometry relative="1" as="geometry" />
        </mxCell>
        <mxCell id="tqMW89JL3QEZzd8QF9iF-11" value="Notification de réception ou&lt;div&gt;massage non lu&lt;/div&gt;" style="shape=hexagon;perimeter=hexagonPerimeter2;whiteSpace=wrap;html=1;fixedSize=1;fillColor=#fff2cc;strokeColor=#d6b656;" vertex="1" parent="1">
          <mxGeometry x="80" y="280" width="120" height="80" as="geometry" />
        </mxCell>
        <mxCell id="tqMW89JL3QEZzd8QF9iF-19" value="" style="edgeStyle=orthogonalEdgeStyle;rounded=0;orthogonalLoop=1;jettySize=auto;html=1;" edge="1" parent="1" source="tqMW89JL3QEZzd8QF9iF-12" target="tqMW89JL3QEZzd8QF9iF-7">
          <mxGeometry relative="1" as="geometry" />
        </mxCell>
        <mxCell id="tqMW89JL3QEZzd8QF9iF-12" value="Notification de réception ou&lt;div&gt;massage non lu&lt;/div&gt;" style="shape=hexagon;perimeter=hexagonPerimeter2;whiteSpace=wrap;html=1;fixedSize=1;fillColor=#ffe6cc;strokeColor=#d79b00;" vertex="1" parent="1">
          <mxGeometry x="600" y="280" width="120" height="80" as="geometry" />
        </mxCell>
        <mxCell id="tqMW89JL3QEZzd8QF9iF-32" value="" style="endArrow=classic;html=1;rounded=0;" edge="1" parent="1">
          <mxGeometry relative="1" as="geometry">
            <mxPoint x="210" y="410" as="sourcePoint" />
            <mxPoint x="580" y="410" as="targetPoint" />
          </mxGeometry>
        </mxCell>
        <mxCell id="tqMW89JL3QEZzd8QF9iF-33" value="" style="shape=message;html=1;outlineConnect=0;" vertex="1" parent="tqMW89JL3QEZzd8QF9iF-32">
          <mxGeometry width="20" height="14" relative="1" as="geometry">
            <mxPoint x="-10" y="-7" as="offset" />
          </mxGeometry>
        </mxCell>
        <mxCell id="tqMW89JL3QEZzd8QF9iF-34" value="" style="endArrow=classic;html=1;rounded=0;" edge="1" parent="1">
          <mxGeometry relative="1" as="geometry">
            <mxPoint x="580" y="460" as="sourcePoint" />
            <mxPoint x="210" y="460" as="targetPoint" />
          </mxGeometry>
        </mxCell>
        <mxCell id="tqMW89JL3QEZzd8QF9iF-35" value="" style="shape=message;html=1;outlineConnect=0;" vertex="1" parent="tqMW89JL3QEZzd8QF9iF-34">
          <mxGeometry width="20" height="14" relative="1" as="geometry">
            <mxPoint x="-10" y="-7" as="offset" />
          </mxGeometry>
        </mxCell>
      </root>
    </mxGraphModel>
  </diagram>
</mxfile>
